<?xml version="1.0" standalone="no"?>
<!DOCTYPE svg PUBLIC "-//W3C//DTD SVG 20010904//EN"
 "http://www.w3.org/TR/2001/REC-SVG-20010904/DTD/svg10.dtd">
<svg version="1.0" xmlns="http://www.w3.org/2000/svg"
 width="1024.000000pt" height="1024.000000pt" viewBox="0 0 1024.000000 1024.000000"
 preserveAspectRatio="xMidYMid meet">

<g transform="translate(0.000000,1024.000000) scale(0.100000,-0.100000)"
fill="#000000" stroke="none">
<path d="M5040 7210 c0 -53 2 -60 20 -60 18 0 20 7 20 60 0 53 -2 60 -20 60
-18 0 -20 -7 -20 -60z"/>
<path d="M5042 7048 c2 -31 8 -44 21 -46 14 -3 17 4 17 42 0 40 -3 46 -21 46
-18 0 -20 -5 -17 -42z"/>
<path d="M5044 6934 c3 -9 6 -29 6 -45 0 -19 5 -29 15 -29 11 0 15 12 15 45 0
39 -3 45 -21 45 -15 0 -19 -4 -15 -16z"/>
<path d="M4927 6783 l-26 -28 -5 -300 c-3 -165 -5 -1010 -5 -1877 -1 -1571 -1
-1578 -21 -1578 -20 0 -20 7 -20 675 l0 675 -115 0 -115 0 0 513 0 512 -127
153 c-109 130 -130 152 -155 152 -25 0 -28 3 -28 35 0 24 -5 35 -15 35 -10 0
-15 -11 -15 -35 l0 -35 -245 0 -244 0 -3 -97 -3 -98 -79 -3 -79 -3 6 -262 c4
-144 7 -583 7 -974 l0 -713 38 1 c36 0 38 2 71 69 l35 70 33 -70 33 -70 115 0
114 0 -2 123 -2 122 -200 5 -200 5 0 25 0 25 233 3 c204 2 233 4 230 18 -3 13
-35 15 -233 17 l-230 2 -3 27 -3 28 233 2 c212 3 233 5 236 21 3 16 -13 17
-233 17 l-236 0 3 28 3 27 233 3 c196 2 232 5 232 17 0 12 -36 15 -232 17
l-233 3 -3 28 -3 27 235 0 c229 0 236 1 236 20 0 19 -7 20 -236 20 l-235 0 3
28 3 27 233 3 c215 2 233 4 230 20 -3 15 -23 17 -213 19 -116 1 -220 2 -232 3
-18 0 -23 6 -23 25 l0 25 232 2 c212 3 233 5 236 21 3 16 -13 17 -233 17
l-236 0 3 28 3 27 233 3 c215 2 233 4 230 20 -3 15 -24 17 -236 20 l-232 2 0
25 0 25 235 0 c228 0 235 1 235 20 0 19 -7 20 -236 20 l-235 0 3 28 3 27 233
3 c215 2 233 4 230 20 -3 15 -24 17 -236 20 l-232 2 0 25 0 25 232 2 c212 3
233 5 236 21 3 16 -13 17 -233 17 l-236 0 3 28 3 27 233 3 c215 2 233 4 230
20 -3 16 -23 17 -233 17 l-230 0 -3 27 -3 28 233 2 c212 3 233 5 236 21 3 16
-13 17 -233 17 l-236 0 3 28 3 27 233 3 c196 2 232 5 232 17 0 12 -36 15 -232
17 l-233 3 -3 28 -3 27 235 0 c229 0 236 1 236 20 0 19 -7 20 -236 20 l-235 0
3 28 3 27 233 3 c197 2 232 5 232 17 0 8 -8 15 -17 16 -10 0 -115 2 -233 4
l-215 3 -3 116 c-3 111 -2 116 18 116 19 0 20 -6 20 -90 0 -73 3 -90 15 -90
12 0 15 17 15 89 0 91 5 106 34 95 13 -5 16 -23 16 -96 0 -76 2 -89 16 -86 13
3 16 30 20 188 3 101 7 186 9 188 2 3 11 2 20 -1 13 -5 15 -34 15 -192 0 -158
2 -185 15 -185 13 0 15 28 15 190 0 178 1 190 18 190 17 0 20 -12 25 -107 4
-58 7 -144 7 -190 0 -67 3 -83 15 -83 13 0 15 28 15 190 0 183 1 190 20 190
19 0 20 -7 20 -129 0 -168 9 -251 26 -251 11 0 14 37 14 190 0 183 1 190 20
190 19 0 20 -8 22 -187 3 -170 5 -188 21 -191 16 -3 17 11 17 187 0 184 1 191
20 191 20 0 20 -8 22 -892 3 -802 5 -889 18 -853 12 34 15 170 18 893 l2 853
67 -3 67 -3 113 -138 113 -137 0 -75 c0 -88 21 -79 -185 -80 -115 0 -130 -2
-133 -17 -3 -17 10 -18 157 -18 l161 0 0 -30 0 -30 -160 0 c-153 0 -160 -1
-160 -20 0 -19 7 -20 160 -20 l160 0 0 -30 0 -30 -160 0 c-136 0 -160 -2 -160
-15 0 -13 24 -15 160 -15 l160 0 0 -30 0 -30 -161 0 c-147 0 -160 -1 -157 -17
3 -16 20 -18 161 -21 l157 -3 0 -30 0 -30 -94 7 c-117 8 -226 -2 -226 -22 0
-11 31 -14 163 -16 l162 -3 0 -25 0 -25 -162 -3 c-155 -2 -163 -4 -163 -22 0
-19 7 -20 160 -20 l160 0 0 -25 0 -24 -157 -3 c-141 -3 -158 -5 -161 -20 -3
-17 10 -18 157 -18 l161 0 0 -30 0 -30 -160 0 c-153 0 -160 -1 -160 -20 0 -19
7 -20 160 -20 l160 0 0 -25 0 -24 -157 -3 c-141 -3 -158 -5 -161 -20 -3 -17
10 -18 157 -18 l161 0 0 -30 0 -30 -136 0 -137 0 6 -112 c5 -102 11 -129 61
-283 30 -93 53 -171 51 -173 -16 -17 -39 25 -80 148 -26 78 -51 138 -55 133
-5 -4 -25 -66 -45 -138 -20 -71 -42 -134 -48 -140 -8 -7 -11 -54 -9 -152 l3
-143 -185 0 -184 0 -14 30 c-16 38 -33 38 -53 0 l-16 -30 -185 0 c-171 0 -185
1 -182 18 2 13 15 18 61 20 l57 3 0 748 0 749 -62 5 c-51 5 -436 3 -485 -2
-10 -1 -13 -211 -13 -1016 l0 -1015 -81 0 -81 0 3 1153 3 1152 -85 5 -84 5 -3
53 -3 52 -300 0 -299 0 0 -55 0 -55 -85 0 -85 0 0 -1155 0 -1155 -145 0 c-138
0 -145 -1 -145 -20 0 -20 7 -20 3580 -20 3573 0 3580 0 3580 20 0 19 -7 20
-110 20 l-110 0 0 875 0 875 -75 0 -75 0 0 70 0 70 -190 0 -190 0 0 -70 0 -70
-60 0 -59 0 -3 -157 -3 -158 -27 -3 -28 -3 0 70 0 71 -155 0 -155 0 0 -70 0
-70 -40 0 -40 0 0 -715 0 -715 -80 0 -80 0 0 149 c0 83 -4 152 -9 155 -4 3
-39 89 -76 191 -42 112 -74 185 -82 185 -7 0 -13 -11 -13 -25 l0 -25 -125 0
-125 0 0 69 c0 56 -6 82 -31 138 l-31 68 -19 -40 c-35 -77 -41 -101 -39 -168
l1 -68 -128 3 -128 3 -3 28 c-4 33 -23 31 -33 -4 -19 -66 -131 -365 -139 -373
-6 -6 -10 -72 -10 -148 0 -112 -3 -138 -14 -138 -12 0 -15 31 -18 163 -2 89 0
166 4 172 4 5 8 305 8 667 l0 658 70 0 70 0 0 -120 0 -120 -50 0 -50 0 0 -497
c1 -333 4 -492 10 -481 6 9 30 77 55 150 l44 133 43 0 c39 0 43 -2 46 -27 3
-25 8 -28 38 -28 l34 0 0 375 0 375 -65 0 -65 0 0 140 0 140 -169 0 -169 0 1
-847 2 -848 -122 -3 -123 -3 0 1481 0 1480 -185 0 -185 0 0 -135 0 -136 -62 3
-63 3 -3 223 -2 222 -55 0 -55 0 0 90 0 90 -55 0 c-46 0 -55 3 -55 18 -1 9 0
119 0 245 l1 227 -69 0 c-61 0 -71 -3 -95 -27z m118 -234 c0 -205 -1 -224 -17
-227 -17 -3 -18 13 -18 221 0 123 3 227 7 231 24 23 28 -12 28 -225z m-21
-265 c14 -5 16 -30 16 -175 l0 -169 -55 0 -55 0 0 168 c0 93 3 172 7 175 8 9
66 9 87 1z m119 -4 c14 0 17 -10 17 -70 l0 -70 -40 0 -40 0 0 76 c0 74 1 76
23 70 12 -3 30 -6 40 -6z m1 -196 c3 -9 6 -706 6 -1550 l0 -1534 -35 0 -35 0
0 1550 0 1550 29 0 c17 0 31 -6 35 -16z m134 -1534 l2 -1550 -50 0 -50 0 0
1550 0 1550 48 0 48 0 2 -1550z m372 1114 l0 -265 -42 3 -43 3 -3 178 c-2 148
-5 177 -17 177 -13 0 -15 -28 -15 -180 l0 -180 -110 0 -110 0 0 85 c0 69 3 85
15 85 9 0 21 -11 27 -25 6 -14 15 -25 20 -25 4 0 7 -6 6 -12 -2 -8 10 -14 30
-16 26 -3 32 -7 32 -28 0 -17 5 -24 20 -24 17 0 20 7 20 40 l0 40 -40 0 c-38
0 -40 1 -40 33 0 48 -12 60 -54 55 -34 -4 -36 -2 -36 24 l0 28 85 0 85 0 0
135 0 135 85 0 85 0 0 -266z m118 -1201 l2 -1463 -40 0 -40 0 0 1466 0 1465
38 -3 37 -3 3 -1462z m-728 -13 l0 -1450 -55 0 -55 0 0 315 0 315 35 0 35 0 0
124 0 125 -32 3 -33 3 -3 198 -2 197 35 0 35 0 0 124 0 125 -32 3 -33 3 -3
187 -2 187 32 3 33 3 3 128 3 127 -36 0 -35 0 0 365 0 365 55 0 55 0 0 -1450z
m-2472 898 l3 -38 -160 0 -161 0 0 -34 0 -34 -60 -4 -59 -3 -3 35 c-3 33 -5
35 -45 38 -43 3 -43 3 -43 43 l0 39 263 -2 262 -3 3 -37z m3082 -18 l0 -30
-170 0 -170 0 0 30 0 30 170 0 170 0 0 -30z m-3560 -165 l0 -105 -110 0 -110
0 0 105 0 105 110 0 110 0 0 -105z m650 0 l0 -105 -230 0 -230 0 0 105 0 105
230 0 230 0 0 -105z m2910 65 l0 -30 -170 0 -170 0 0 30 0 30 170 0 170 0 0
-30z m0 -100 l0 -30 -170 0 -170 0 0 30 0 30 170 0 170 0 0 -30z m0 -100 l0
-30 -170 0 -170 0 0 30 0 30 170 0 170 0 0 -30z m-3557 -732 c4 -397 7 -851 7
-1010 l0 -288 -115 0 -115 0 0 1010 0 1010 108 0 109 0 6 -722z m647 682 l0
-40 -195 0 c-165 0 -195 -2 -195 -15 0 -12 31 -15 193 -17 l192 -3 3 -32 3
-33 -195 0 c-189 0 -196 -1 -196 -20 0 -19 7 -20 195 -20 l195 0 0 -30 0 -30
-195 0 c-188 0 -195 -1 -195 -20 0 -19 7 -20 196 -20 l195 0 -3 -32 -3 -33
-190 -1 c-166 -1 -190 -3 -193 -17 -3 -15 18 -17 190 -19 l193 -3 0 -30 0 -30
-192 -3 c-161 -2 -193 -5 -193 -17 0 -12 32 -15 193 -17 l192 -3 3 -32 3 -33
-195 0 c-189 0 -196 -1 -196 -20 0 -19 7 -20 195 -20 l195 0 0 -30 0 -30 -195
0 c-188 0 -195 -1 -195 -20 0 -19 7 -20 195 -20 l195 0 0 -35 0 -35 -195 0
c-165 0 -195 -2 -195 -15 0 -12 31 -15 193 -17 l192 -3 3 -32 3 -33 -195 0
c-189 0 -196 -1 -196 -20 0 -19 7 -20 195 -20 l195 0 0 -30 0 -30 -195 0
c-188 0 -195 -1 -195 -20 0 -19 7 -20 196 -20 l195 0 -3 -32 -3 -33 -192 -3
c-161 -2 -193 -5 -193 -17 0 -12 32 -15 193 -17 l192 -3 3 -32 3 -33 -195 0
c-189 0 -196 -1 -196 -20 0 -19 7 -20 195 -20 l195 0 0 -30 0 -30 -195 0
c-188 0 -195 -1 -195 -20 0 -19 7 -20 196 -20 l195 0 -3 -32 -3 -33 -192 -3
c-161 -2 -193 -5 -193 -17 0 -12 32 -15 193 -17 l192 -3 3 -32 3 -33 -195 0
c-189 0 -196 -1 -196 -20 0 -19 7 -20 195 -20 l195 0 0 -30 0 -30 -195 0
c-188 0 -195 -1 -195 -20 0 -19 7 -20 196 -20 l195 0 -3 -32 -3 -33 -192 -3
c-161 -2 -193 -5 -193 -17 0 -12 32 -15 193 -17 l192 -3 3 -32 3 -33 -195 0
c-189 0 -196 -1 -196 -20 0 -19 7 -20 195 -20 l195 0 0 -75 0 -75 -230 0 -230
0 0 1010 0 1010 230 0 230 0 0 -40z m370 -236 c0 -237 -1 -244 -20 -244 -19 0
-20 7 -20 243 0 134 3 246 6 250 3 3 12 3 20 0 11 -4 14 -49 14 -249z m80 0
c0 -237 -1 -244 -20 -244 -19 0 -20 7 -20 243 0 134 3 246 6 250 3 3 12 3 20
0 11 -4 14 -49 14 -249z m-160 1 c0 -211 -2 -245 -15 -245 -13 0 -15 34 -15
245 0 211 2 245 15 245 13 0 15 -34 15 -245z m238 93 c-3 -136 -5 -153 -20
-156 -17 -3 -18 9 -18 152 0 150 1 156 20 156 20 0 20 -5 18 -152z m76 91 c8
-79 8 -255 0 -352 -5 -55 -11 -77 -20 -77 -11 0 -14 46 -14 245 0 200 3 245
14 245 9 0 15 -20 20 -61z m76 -184 c0 -211 -2 -245 -15 -245 -13 0 -15 34
-15 245 0 211 2 245 15 245 13 0 15 -34 15 -245z m2230 185 l0 -30 -170 0
-170 0 0 30 0 30 170 0 170 0 0 -30z m-16 -66 c10 -4 16 -18 16 -35 l0 -29
-170 0 -170 0 0 30 0 29 88 4 c184 7 221 7 236 1z m2666 -64 l0 -50 -155 0
-155 0 0 50 0 50 155 0 155 0 0 -50z m-2770 -65 l0 -25 -110 0 -110 0 0 25 0
25 110 0 110 0 0 -25z m78 -47 c-2 -60 -6 -73 -20 -76 -16 -3 -18 6 -18 72 0
70 2 76 20 76 19 0 21 -5 18 -72z m2372 -833 l0 -855 -50 0 -50 0 0 713 c0
465 -3 713 -10 715 -6 2 -10 59 -10 143 l0 139 60 0 60 0 0 -855z m78 803 c-2
-41 -7 -54 -20 -56 -15 -3 -18 5 -18 52 0 50 2 56 21 56 18 0 20 -5 17 -52z
m77 -3 c0 -43 -3 -50 -20 -50 -16 0 -21 8 -23 39 -4 49 3 68 25 64 14 -3 18
-14 18 -53z m75 -1 c0 -47 -3 -55 -17 -52 -14 2 -19 15 -21 56 -3 47 -1 52 17
52 19 0 21 -6 21 -56z m78 4 c-2 -39 -7 -53 -18 -53 -11 0 -16 14 -18 53 -3
47 -1 52 18 52 19 0 21 -5 18 -52z m82 3 c0 -33 -5 -51 -14 -54 -21 -8 -26 2
-26 55 0 41 3 48 20 48 17 0 20 -7 20 -49z m78 -2 c2 -36 -1 -48 -13 -53 -25
-9 -35 2 -35 39 0 46 9 67 29 63 11 -2 17 -16 19 -49z m-2918 -19 l0 -31 -107
3 -108 3 -3 28 -3 27 110 0 111 0 0 -30z m120 -345 l0 -275 -170 0 -170 0 0
275 0 275 170 0 170 0 0 -275z m2410 225 c0 -43 -3 -50 -20 -50 -17 0 -20 7
-20 50 0 43 3 50 20 50 17 0 20 -7 20 -50z m78 -2 c3 -46 2 -48 -22 -48 -24 0
-26 3 -26 51 0 47 2 50 23 47 19 -3 22 -10 25 -50z m72 2 c0 -43 -3 -50 -20
-50 -17 0 -20 7 -20 50 0 43 3 50 20 50 17 0 20 -7 20 -50z m80 0 c0 -43 -3
-50 -20 -50 -17 0 -20 7 -20 50 0 43 3 50 20 50 17 0 20 -7 20 -50z m80 0 c0
-43 -3 -50 -20 -50 -17 0 -20 7 -20 50 0 43 3 50 20 50 17 0 20 -7 20 -50z
m80 0 c0 -47 -2 -50 -25 -50 -23 0 -25 4 -25 43 0 48 5 57 32 57 15 0 18 -8
18 -50z m-720 -41 l0 -49 -115 0 -115 0 0 48 c0 27 2 51 4 53 2 2 54 3 115 1
l111 -3 0 -50z m330 -99 c0 -43 -3 -50 -20 -50 -17 0 -20 7 -20 50 0 43 3 50
20 50 17 0 20 -7 20 -50z m80 0 c0 -47 -2 -50 -25 -50 -23 0 -25 3 -25 50 0
47 2 50 25 50 23 0 25 -3 25 -50z m70 0 c0 -43 -3 -50 -20 -50 -17 0 -20 7
-20 50 0 43 3 50 20 50 17 0 20 -7 20 -50z m80 0 c0 -43 -3 -50 -20 -50 -17 0
-20 7 -20 50 0 43 3 50 20 50 17 0 20 -7 20 -50z m80 0 c0 -43 -3 -50 -20 -50
-17 0 -20 7 -20 50 0 43 3 50 20 50 17 0 20 -7 20 -50z m80 0 c0 -47 -2 -50
-25 -50 -22 0 -25 4 -25 34 0 47 9 66 31 66 16 0 19 -8 19 -50z m-600 -35 l0
-45 -215 0 -215 0 0 45 0 45 215 0 215 0 0 -45z m210 -105 c0 -43 -3 -50 -20
-50 -17 0 -20 7 -20 50 0 43 3 50 20 50 17 0 20 -7 20 -50z m80 0 c0 -47 -2
-50 -25 -50 -23 0 -25 3 -25 50 0 47 2 50 25 50 23 0 25 -3 25 -50z m70 0 c0
-43 -3 -50 -20 -50 -17 0 -20 7 -20 50 0 43 3 50 20 50 17 0 20 -7 20 -50z
m80 0 c0 -43 -3 -50 -20 -50 -17 0 -20 7 -20 50 0 43 3 50 20 50 17 0 20 -7
20 -50z m80 0 c0 -43 -3 -50 -20 -50 -17 0 -20 7 -20 50 0 43 3 50 20 50 17 0
20 -7 20 -50z m80 0 c0 -47 -2 -50 -25 -50 -23 0 -25 3 -25 50 0 47 2 50 25
50 23 0 25 -3 25 -50z m-646 24 l47 -7 -3 -41 -3 -41 -212 -3 -213 -2 0 44 0
45 73 4 c144 6 265 7 311 1z m-4460 -296 c49 -159 55 -201 27 -184 -6 4 -32
73 -58 154 l-47 147 -49 -152 c-40 -126 -51 -153 -67 -153 -22 0 -27 -20 61
254 62 197 48 204 133 -66z m4716 132 c0 -43 -3 -50 -20 -50 -17 0 -20 7 -20
50 0 43 3 50 20 50 17 0 20 -7 20 -50z m76 26 c10 -42 1 -71 -23 -74 -21 -3
-23 0 -23 47 0 44 3 51 20 51 12 0 22 -9 26 -24z m74 -26 c0 -43 -3 -50 -20
-50 -17 0 -20 7 -20 50 0 43 3 50 20 50 17 0 20 -7 20 -50z m80 0 c0 -43 -3
-50 -20 -50 -17 0 -20 7 -20 50 0 43 3 50 20 50 17 0 20 -7 20 -50z m80 0 c0
-43 -3 -50 -20 -50 -17 0 -20 7 -20 50 0 43 3 50 20 50 17 0 20 -7 20 -50z
m80 0 c0 -43 -3 -50 -20 -50 -17 0 -20 7 -20 50 0 43 3 50 20 50 17 0 20 -7
20 -50z m-600 -5 l0 -45 -215 0 -215 0 0 45 0 45 215 0 215 0 0 -45z m-3070
15 c0 -19 -7 -20 -160 -20 -153 0 -160 1 -160 20 0 19 7 20 160 20 153 0 160
-1 160 -20z m0 -75 c0 -13 -24 -15 -160 -15 -136 0 -160 2 -160 15 0 13 24 15
160 15 136 0 160 -2 160 -15z m3068 -67 l-3 -43 -212 -3 -213 -2 0 45 0 45
216 0 215 0 -3 -42z m212 -8 c0 -43 -3 -50 -20 -50 -17 0 -20 7 -20 50 0 43 3
50 20 50 17 0 20 -7 20 -50z m80 0 c0 -47 -2 -50 -25 -50 -23 0 -25 3 -25 50
0 47 2 50 25 50 23 0 25 -3 25 -50z m70 0 c0 -43 -3 -50 -20 -50 -17 0 -20 7
-20 50 0 43 3 50 20 50 17 0 20 -7 20 -50z m80 0 c0 -43 -3 -50 -20 -50 -17 0
-20 7 -20 50 0 43 3 50 20 50 17 0 20 -7 20 -50z m80 0 c0 -43 -3 -50 -20 -50
-17 0 -20 7 -20 50 0 43 3 50 20 50 17 0 20 -7 20 -50z m80 -1 c0 -47 -2 -50
-22 -47 -20 3 -23 10 -26 51 -3 45 -2 47 22 47 24 0 26 -3 26 -51z m-3670 1
c0 -19 -7 -20 -160 -20 -153 0 -160 1 -160 20 0 19 7 20 160 20 153 0 160 -1
160 -20z m748 -2 c-3 -22 -8 -23 -110 -26 l-108 -3 0 26 0 25 111 0 c109 0
110 0 107 -22z m80 -55 c-2 -63 -6 -78 -20 -81 -14 -3 -17 9 -20 77 -3 79 -2
81 20 81 22 0 23 -3 20 -77z m-828 -18 c0 -13 -24 -15 -160 -15 -136 0 -160 2
-160 15 0 13 24 15 160 15 136 0 160 -2 160 -15z m748 -27 l3 -28 -110 0 -111
0 0 30 0 31 108 -3 107 -3 3 -27z m2322 -13 l0 -45 -215 0 -215 0 0 45 0 45
215 0 215 0 0 -45z m210 -25 c0 -43 -3 -50 -20 -50 -17 0 -20 7 -20 50 0 43 3
50 20 50 17 0 20 -7 20 -50z m80 0 c0 -47 -2 -50 -25 -50 -23 0 -25 3 -25 50
0 47 2 50 25 50 23 0 25 -3 25 -50z m70 0 c0 -43 -3 -50 -20 -50 -17 0 -20 7
-20 50 0 43 3 50 20 50 17 0 20 -7 20 -50z m80 0 c0 -43 -3 -50 -20 -50 -17 0
-20 7 -20 50 0 43 3 50 20 50 17 0 20 -7 20 -50z m80 0 c0 -43 -3 -50 -20 -50
-17 0 -20 7 -20 50 0 43 3 50 20 50 17 0 20 -7 20 -50z m78 3 c-3 -40 -6 -48
-23 -48 -13 0 -21 8 -23 24 -6 40 7 71 29 71 18 0 20 -5 17 -47z m-3663 -13
c0 -13 -26 -15 -162 -18 -159 -2 -163 -2 -163 18 0 20 4 20 163 18 136 -3 162
-5 162 -18z m865 -50 l0 -30 -170 0 -170 0 0 30 0 30 170 0 170 0 0 -30z
m2118 1 l82 -1 0 -40 0 -40 -215 0 -215 0 0 40 0 39 68 3 c37 2 96 2 132 1 36
0 102 -1 148 -2z m-4428 -61 c0 -57 -1 -60 -25 -60 -23 0 -25 4 -25 45 0 41
-2 45 -25 45 -23 0 -25 -4 -25 -46 0 -41 -2 -45 -22 -42 -21 3 -23 9 -25 61
l-2 57 75 0 74 0 0 -60z m1030 0 c0 -57 -1 -60 -25 -60 -23 0 -25 4 -25 45 0
41 -2 45 -25 45 -23 0 -25 -4 -25 -46 0 -41 -2 -45 -22 -42 -20 3 -23 10 -26
61 l-3 57 76 0 75 0 0 -60z m418 38 c-4 -10 -48 -14 -166 -16 -140 -2 -162 0
-162 13 0 13 24 15 166 15 128 0 165 -3 162 -12z m1962 -38 c0 -25 -4 -30 -25
-30 -20 0 -25 5 -25 23 0 28 7 37 32 37 13 0 18 -8 18 -30z m1310 -20 c0 -43
-3 -50 -20 -50 -17 0 -20 7 -20 50 0 43 3 50 20 50 17 0 20 -7 20 -50z m78 3
c-2 -36 -7 -49 -20 -51 -15 -3 -18 4 -18 47 0 45 3 51 21 51 18 0 20 -5 17
-47z m72 -3 c0 -43 -3 -50 -20 -50 -17 0 -20 7 -20 50 0 43 3 50 20 50 17 0
20 -7 20 -50z m80 0 c0 -43 -3 -50 -20 -50 -17 0 -20 7 -20 50 0 43 3 50 20
50 17 0 20 -7 20 -50z m80 0 c0 -43 -3 -50 -20 -50 -17 0 -20 7 -20 50 0 43 3
50 20 50 17 0 20 -7 20 -50z m78 3 c-3 -40 -6 -48 -23 -48 -17 0 -20 8 -23 48
-3 45 -2 47 23 47 25 0 26 -2 23 -47z m-2798 -23 l0 -30 -170 0 -170 0 0 30 0
30 170 0 170 0 0 -30z m-865 0 c0 -13 -24 -15 -160 -15 -145 0 -160 2 -163 18
-3 16 8 17 160 15 137 -3 163 -5 163 -18z m3065 -65 l0 -45 -215 0 -215 0 0
45 0 45 215 0 215 0 0 -45z m-4512 -147 l3 -158 -76 0 -75 0 0 154 c0 114 3
156 13 160 6 2 39 4 72 3 l60 -2 3 -157z m1001 156 l31 -6 0 -154 0 -154 -74
0 -73 0 -2 150 c-1 83 1 155 4 160 7 11 67 13 114 4z m446 -14 c0 -13 -26 -15
-162 -18 -132 -2 -163 0 -163 11 0 8 2 16 5 19 3 3 76 5 163 4 132 -1 157 -3
157 -16z m2071 -276 l6 -24 -137 0 -136 0 7 23 c3 12 34 82 67 156 l61 135 63
-133 c35 -73 66 -144 69 -157z m-1206 246 l0 -30 -170 0 -170 0 0 30 0 30 170
0 170 0 0 -30z m2410 -20 c0 -43 -3 -50 -20 -50 -17 0 -20 7 -20 50 0 43 3 50
20 50 17 0 20 -7 20 -50z m78 3 c-3 -40 -6 -48 -23 -48 -17 0 -20 8 -23 48 -3
45 -2 47 23 47 25 0 26 -2 23 -47z m72 -3 c0 -43 -3 -50 -20 -50 -17 0 -20 7
-20 50 0 43 3 50 20 50 17 0 20 -7 20 -50z m80 0 c0 -43 -3 -50 -20 -50 -17 0
-20 7 -20 50 0 43 3 50 20 50 17 0 20 -7 20 -50z m80 0 c0 -43 -3 -50 -20 -50
-17 0 -20 7 -20 50 0 43 3 50 20 50 17 0 20 -7 20 -50z m80 5 c0 -32 -5 -47
-16 -52 -24 -9 -33 9 -27 55 4 32 10 42 24 42 16 0 19 -8 19 -45z m-3662 -32
c3 -10 -34 -13 -162 -13 -142 0 -166 2 -166 15 0 13 22 15 162 13 118 -2 162
-6 166 -15z m3060 -40 l3 -43 -215 0 -216 0 0 45 0 45 213 -2 212 -3 3 -42z
m-2198 -228 l0 -245 -170 0 -170 0 0 245 0 245 170 0 170 0 0 -245z m-1805
144 c31 -50 54 -93 52 -95 -2 -3 -59 -3 -126 -2 l-121 3 62 93 c33 50 64 92
68 92 5 0 33 -41 65 -91z m938 57 c3 -8 3 -17 0 -20 -4 -3 -78 -6 -165 -6
-151 0 -158 1 -158 20 0 19 7 20 159 20 127 0 160 -3 164 -14z m3665 -45 c-3
-38 -6 -46 -23 -46 -16 0 -21 8 -23 39 -4 51 2 66 28 59 18 -5 21 -12 18 -52z
m-388 -1 c0 -43 -3 -50 -20 -50 -17 0 -20 7 -20 50 0 43 3 50 20 50 17 0 20
-7 20 -50z m78 3 c-3 -40 -6 -48 -23 -48 -17 0 -20 8 -23 48 -3 45 -2 47 23
47 25 0 26 -2 23 -47z m72 -3 c0 -43 -3 -50 -20 -50 -17 0 -20 7 -20 50 0 43
3 50 20 50 17 0 20 -7 20 -50z m80 0 c0 -43 -3 -50 -20 -50 -17 0 -20 7 -20
50 0 43 3 50 20 50 17 0 20 -7 20 -50z m78 3 c-2 -36 -7 -49 -20 -51 -15 -3
-18 4 -18 47 0 45 3 51 21 51 18 0 20 -5 17 -47z m-1940 -8 c7 -14 12 -44 12
-65 0 -38 -2 -40 -30 -40 -29 0 -30 2 -30 46 0 45 13 84 29 84 4 0 13 -11 19
-25z m642 -4 c6 -16 10 -44 8 -62 -2 -29 -7 -35 -30 -37 -27 -3 -28 -2 -28 43
0 46 13 85 29 85 5 0 14 -13 21 -29z m-2290 -26 c0 -13 -27 -15 -160 -15 -127
0 -160 3 -160 13 0 8 2 16 4 18 2 2 74 3 160 1 128 -2 156 -6 156 -17z m3070
-20 l0 -45 -215 0 -215 0 0 45 0 45 215 0 215 0 0 -45z m208 -83 c3 -47 1 -52
-17 -52 -19 0 -21 6 -21 56 0 47 3 55 18 52 13 -2 18 -15 20 -56z m77 3 c0
-43 -3 -50 -20 -50 -16 0 -21 8 -23 39 -4 49 3 68 25 64 14 -3 18 -14 18 -53z
m75 0 c0 -48 -2 -55 -20 -55 -17 0 -20 7 -20 48 0 51 5 62 27 62 9 0 13 -16
13 -55z m158 -3 c3 -47 1 -52 -17 -52 -19 0 -21 6 -21 56 0 47 3 55 18 52 13
-2 18 -15 20 -56z m70 49 c9 -5 12 -24 10 -52 -2 -36 -7 -44 -23 -44 -16 0
-21 8 -23 39 -5 59 6 77 36 57z m-3658 -21 c0 -20 -5 -20 -157 -18 -141 3
-158 5 -161 21 -3 16 10 17 157 17 155 0 161 -1 161 -20z m3510 -30 c0 -43 -3
-50 -20 -50 -17 0 -20 7 -20 50 0 43 3 50 20 50 17 0 20 -7 20 -50z m-442 -37
l3 -43 -215 0 -216 0 0 45 0 45 213 -2 212 -3 3 -42z m-4508 -98 l0 -125 -75
0 -75 0 0 125 0 125 75 0 75 0 0 -125z m300 0 l0 -125 -129 0 c-81 0 -132 4
-136 11 -4 5 -4 62 0 125 l7 114 129 0 129 0 0 -125z m250 0 l0 -125 -25 0
c-25 0 -25 1 -25 80 0 67 -3 83 -20 100 -25 25 -41 25 -71 1 -21 -17 -24 -28
-26 -98 -1 -71 -3 -78 -22 -81 -20 -3 -21 1 -21 122 l0 126 105 0 105 0 0
-125z m300 0 l0 -126 -132 3 -133 3 -3 109 c-1 61 0 116 2 123 4 10 37 13 136
13 l130 0 0 -125z m180 0 l0 -126 -72 3 -73 3 0 115 c0 63 1 118 3 123 2 4 34
7 73 7 l69 0 0 -125z m2180 0 l0 -125 -140 0 -140 0 0 125 0 125 140 0 140 0
0 -125z m310 0 l0 -125 -30 0 -30 0 0 67 c0 55 -4 71 -22 90 -25 26 -64 30
-95 8 -17 -12 -23 -29 -28 -90 -7 -74 -8 -75 -36 -75 l-29 0 0 125 0 125 135
0 135 0 0 -125z m324 109 c3 -9 6 -65 6 -125 l0 -109 -145 0 -145 0 0 125 0
125 139 0 c117 0 140 -2 145 -16z m-2404 -14 c0 -19 -7 -20 -160 -20 -153 0
-160 1 -160 20 0 19 7 20 160 20 153 0 160 -1 160 -20z m3278 -133 c3 -82 2
-87 -18 -87 -19 0 -20 6 -20 91 0 81 2 90 18 87 14 -3 17 -17 20 -91z m76 70
c0 -9 -1 -48 -2 -87 -2 -63 -4 -70 -22 -70 -18 0 -20 7 -20 83 0 46 3 87 7 91
13 12 38 1 37 -17z m76 -67 c0 -83 -1 -90 -20 -90 -18 0 -20 7 -20 83 0 85 3
97 27 97 10 0 13 -22 13 -90z m80 0 c0 -83 -1 -90 -20 -90 -18 0 -20 7 -20 84
0 81 4 92 33 95 4 1 7 -39 7 -89z m78 -3 c3 -82 2 -87 -18 -87 -19 0 -20 6
-20 91 0 81 2 90 18 87 14 -3 17 -17 20 -91z m66 87 c13 -5 16 -23 16 -90 0
-83 0 -84 -25 -84 -25 0 -25 1 -25 83 0 94 3 103 34 91z m-584 -104 l0 -70
-215 0 -215 0 0 70 0 70 215 0 215 0 0 -70z"/>
<path d="M5210 5910 c0 -43 3 -50 20 -50 17 0 20 7 20 50 0 43 -3 50 -20 50
-17 0 -20 -7 -20 -50z"/>
<path d="M5440 5591 c0 -22 21 -33 40 -21 18 11 4 40 -20 40 -13 0 -20 -7 -20
-19z"/>
<path d="M3240 3495 c0 -52 1 -55 25 -55 24 0 25 3 25 55 0 52 -1 55 -25 55
-24 0 -25 -3 -25 -55z"/>
<path d="M4272 3543 c-5 -10 -7 -37 -4 -60 4 -40 6 -43 33 -43 28 0 29 2 29
48 0 48 -12 72 -37 72 -7 0 -16 -8 -21 -17z"/>
<path d="M6702 3463 c2 -20 9 -29 26 -31 19 -3 22 1 22 27 0 27 -4 31 -26 31
-22 0 -25 -4 -22 -27z"/>
<path d="M6670 3355 c0 -28 4 -35 20 -35 16 0 20 7 20 35 0 28 -4 35 -20 35
-16 0 -20 -7 -20 -35z"/>
<path d="M6745 3380 c-13 -21 4 -60 26 -60 17 0 20 5 17 32 -3 33 -29 50 -43
28z"/>
<path d="M3754 3366 c-11 -29 1 -51 29 -54 25 -3 27 -1 27 32 0 32 -3 36 -25
36 -14 0 -28 -6 -31 -14z"/>
<path d="M3421 3186 c-7 -9 -11 -37 -9 -72 3 -57 3 -58 33 -58 l30 0 0 70 c0
62 -2 69 -21 72 -11 2 -26 -4 -33 -12z"/>
<path d="M3536 3184 c-3 -9 -6 -40 -6 -70 l0 -54 35 0 35 0 0 54 c0 69 -7 86
-35 86 -13 0 -26 -7 -29 -16z"/>
<path d="M3972 3188 c-7 -7 -12 -38 -12 -70 l0 -58 40 0 40 0 0 44 c0 81 -32
120 -68 84z"/>
<path d="M4086 3184 c-3 -9 -6 -40 -6 -70 l0 -54 35 0 35 0 0 58 c0 32 -5 63
-12 70 -17 17 -45 15 -52 -4z"/>
<path d="M6320 3131 l0 -61 30 0 31 0 -3 58 c-3 54 -4 57 -30 60 -28 3 -28 3
-28 -57z"/>
<path d="M6447 3184 c-4 -4 -7 -31 -7 -61 l0 -53 35 0 36 0 -3 58 c-3 53 -5
57 -28 60 -14 2 -29 0 -33 -4z"/>
<path d="M6950 3131 l0 -61 30 0 31 0 -3 58 c-3 54 -4 57 -30 60 -28 3 -28 3
-28 -57z"/>
<path d="M7077 3183 c-4 -3 -7 -30 -7 -60 0 -52 1 -53 29 -53 31 0 41 14 41
56 0 49 -38 83 -63 57z"/>
<path d="M6710 6371 c-6 -12 -10 -110 -10 -249 0 -216 -1 -230 -20 -247 -11
-10 -20 -24 -20 -32 0 -7 -9 -13 -20 -13 -16 0 -20 -7 -20 -30 0 -30 -1 -30
-52 -30 -29 0 -62 -3 -73 -6 -20 -5 -20 -14 -22 -655 l-2 -649 46 0 46 0 -6
-372 c-4 -205 -4 -383 -1 -395 5 -18 14 -23 41 -23 l34 0 -7 49 c-5 42 -2 57
29 122 20 41 43 100 52 132 9 31 18 57 20 57 2 0 13 -29 25 -65 12 -36 24 -65
26 -65 2 0 4 421 4 935 l0 935 -65 0 c-51 0 -65 3 -65 15 0 12 16 15 85 15
l85 0 0 -160 0 -160 105 0 105 0 0 105 0 105 -30 0 c-28 0 -30 3 -30 35 0 42
-27 60 -75 51 -30 -6 -33 -4 -38 23 -4 16 -14 32 -24 35 -10 3 -26 20 -35 37
-16 27 -18 60 -18 255 0 232 -5 264 -40 264 -11 0 -24 -9 -30 -19z m40 -121
c0 -22 -4 -40 -10 -40 -5 0 -10 18 -10 40 0 22 5 40 10 40 6 0 10 -18 10 -40z
m0 -150 c0 -27 -4 -50 -10 -50 -5 0 -10 23 -10 50 0 28 5 50 10 50 6 0 10 -22
10 -50z m0 -150 c0 -21 -4 -42 -10 -45 -6 -4 -10 13 -10 45 0 32 4 49 10 45 6
-3 10 -24 10 -45z m18 -107 c2 -9 -7 -13 -27 -13 -30 0 -46 11 -34 24 11 11
56 2 61 -11z m160 -125 c-3 -25 -34 -36 -50 -20 -17 17 -1 42 27 42 22 0 26
-4 23 -22z"/>
<path d="M6827 5444 c-9 -9 -9 -1545 0 -1676 l6 -98 89 0 c80 0 89 2 86 18 -2
10 -14 18 -31 20 -17 2 -27 9 -27 19 0 14 11 15 77 9 42 -3 100 -6 130 -6 40
0 53 -4 53 -15 0 -11 -13 -15 -54 -15 l-55 0 13 -37 c12 -35 16 -38 54 -41 51
-4 60 -32 11 -32 -30 0 -31 -2 -25 -32 7 -36 23 -58 42 -58 17 0 18 -12 3 -27
-8 -8 -7 -25 6 -65 10 -29 21 -57 26 -63 5 -5 8 436 7 1045 l-3 1055 -201 3
c-110 1 -203 -1 -207 -4z m378 -125 c4 -6 5 -12 3 -14 -2 -3 -60 -6 -128 -7
-112 -3 -125 -1 -128 15 -3 15 8 17 122 17 78 0 127 -4 131 -11z m0 -119 c0
-13 -20 -15 -124 -15 -86 0 -126 4 -128 12 -6 17 21 21 142 19 90 -1 110 -4
110 -16z m5 -115 c0 -13 -21 -15 -130 -15 -109 0 -130 2 -130 15 0 13 21 15
130 15 109 0 130 -2 130 -15z m-2 -112 c3 -10 -27 -13 -127 -13 -120 0 -143 4
-124 24 13 13 246 2 251 -11z m-3 -105 c21 -20 -15 -28 -131 -28 -97 0 -124 3
-124 13 0 8 3 17 7 20 8 9 239 4 248 -5z m5 -123 c0 -13 -21 -15 -130 -15
-109 0 -130 2 -130 15 0 13 21 15 130 15 109 0 130 -2 130 -15z m-5 -115 c0
-13 -20 -15 -122 -14 -123 0 -141 3 -128 24 4 7 48 10 128 8 101 -3 122 -6
122 -18z m5 -115 c0 -13 -21 -15 -130 -15 -109 0 -130 2 -130 15 0 13 21 15
130 15 109 0 130 -2 130 -15z m0 -110 c0 -13 -21 -15 -130 -15 -109 0 -130 2
-130 15 0 13 21 15 130 15 109 0 130 -2 130 -15z m-2 -110 c2 -2 1 -8 -3 -14
-10 -17 -255 -15 -255 2 0 8 3 17 7 20 6 7 245 -1 251 -8z m2 -120 c0 -13 -21
-15 -130 -15 -109 0 -130 2 -130 15 0 13 21 15 130 15 109 0 130 -2 130 -15z
m0 -110 c0 -13 -21 -15 -130 -15 -109 0 -130 2 -130 15 0 13 21 15 130 15 109
0 130 -2 130 -15z m-2 -117 c3 -16 -8 -18 -127 -18 -108 0 -131 3 -131 14 0
17 50 23 175 22 68 -1 80 -4 83 -18z m2 -113 c0 -13 -21 -15 -130 -15 -109 0
-130 2 -130 15 0 13 21 15 130 15 109 0 130 -2 130 -15z"/>
<path d="M4270 5305 c0 -33 4 -45 14 -45 22 0 26 12 19 53 -8 55 -33 49 -33
-8z"/>
<path d="M4350 5305 c0 -33 4 -45 15 -45 11 0 15 12 15 45 0 33 -4 45 -15 45
-11 0 -15 -12 -15 -45z"/>
<path d="M4430 5305 c0 -33 4 -45 15 -45 11 0 15 12 15 45 0 33 -4 45 -15 45
-11 0 -15 -12 -15 -45z"/>
<path d="M4510 5305 c0 -33 4 -45 15 -45 11 0 15 12 15 45 0 33 -4 45 -15 45
-11 0 -15 -12 -15 -45z"/>
</g>
</svg>
